<?xml version="1.0" encoding="UTF-8"?>
<svg id="Capa_1" data-name="Capa 1" xmlns="http://www.w3.org/2000/svg" xmlns:xlink="http://www.w3.org/1999/xlink" viewBox="0 0 2834.65 2834.65">
  <defs>
    <style>
      .cls-1 {
        fill: none;
        stroke-width: 0px;
      }
    </style>
  </defs>
  <image width="4000" height="4000" transform="scale(.71)" xlink:href="freepik_br_e691c105-ccaa-4c44-b029-787e7da60fee.png"/>
  <path id="pecho" class="cls-1" d="M683.62,622.11c-62.4,0-106.08,25.92-113.28,77.76-11.08,84.99,13.6,138.59,84.96,151.2,41.79,4.2,75.92-2.77,96.96-28.8l56.16-.48c19.86,21.64,48.08,34.43,92.16,30.42,42.61-9.33,68.64-21.78,82.56-58.26,15.4-44.98,14.48-88.56-4.8-130.56-29.55-30.47-62.88-48.33-103.68-41.28h-191.04Z"/>
  <path id="hombro" class="cls-1" d="M513.7,774.27l36-42.84c11.16-39.96-11.88-76.32,43.56-95.4,29.38-7.04,26.28-18.71-6.12-34.56-33.69-13.52-63.26-8.75-88.2,16.56-31.92,25.34-53.91,52.77-49.68,85.68,2.63,32.07,16.24,52.19,37.08,64.44,9.66,8.39,19.01,13.12,27.36,6.12Z"/>
  <path id="hombro-2" data-name="hombro" class="cls-1" d="M1047.55,774.27l-36-42.84c-11.16-39.96,11.88-76.32-43.56-95.4-29.38-7.04-26.28-18.71,6.12-34.56,33.69-13.52,63.26-8.75,88.2,16.56,31.92,25.34,53.91,52.77,49.68,85.68-2.63,32.07-16.24,52.19-37.08,64.44-9.66,8.39-19.01,13.12-27.36,6.12Z"/>
  <path id="abdomen" class="cls-1" d="M768.58,1403.55c-34.92-6.72-50.15-42.18-69.84-97.92-11.29-50.88-18.63-100.55-21.36-148.8-2.77-24.3-3.9-50.21-3.84-77.28,1.62-25.44,2.16-51.12,5.04-79.2,0-1.83-4.32-37.8-7.2-45.72-6.12-38.34-9.9-72.9,12.24-82.8,25.56-12.6,53.1-25.56,63.23-31.86,11.65-3.96,43.33-2.52,60.97-1.26,22.5,5.76,68.3,31.48,78.3,38.7,15.06,18.18,7.63,51.17,3.42,79.38-6.84,21.24-6,54.2-6,57.48,4.46,29.13,7.88,66.96,4.04,106.32-.99,37.33-5.07,76.13-11.24,115.92-4.38,31-10.62,60.79-19.2,89.04-9.88,32.92-24.33,56.6-44.16,69.36-7.96,4.29-15.54,7.56-22.32,8.64h-22.08Z"/>
  <path id="cuadriceps" class="cls-1" d="M588.75,1305.64c-22.98,31.67-38.71,97.91-42.66,132.47-12.85,76.19-6.89,167.47,5.04,263.52,3.18,33,10.17,61.81,26.27,80.64,5.5,24.85,14.48,46.65,28.45,64.08,29.35,5.56,54.12,7.44,86.88,9.24,8.88,0,10.07-6,9.96-14.4-7.2-24.72,13.56-60.84,1.98-119.22-3.11-29.59-12.01-57.46-26.34-83.7-8.06-67.41-31.51-149.26-58.8-234.72l-30.78-97.91Z"/>
  <path id="cuadriceps-2" data-name="cuadriceps" class="cls-1" d="M971.34,1305.64c22.98,31.67,38.71,97.91,42.66,132.47,12.85,76.19,6.89,167.47-5.04,263.52-3.18,33-10.17,61.81-26.27,80.64-5.5,24.85-14.48,46.65-28.45,64.08-29.35,5.56-54.12,7.44-86.88,9.24-8.88,0-10.07-6-9.96-14.4,7.2-24.72-13.56-60.84-1.98-119.22,3.11-29.59,12.01-57.46,26.34-83.7,8.06-67.41,31.51-149.26,58.8-234.72l30.78-97.91Z"/>
  <path id="aductor" class="cls-1" d="M601.18,1284.75c32.4,105.07,60.26,207.76,81,306.72,14.35,48.74,25.31,106.23,34.56,168.12,11.14-37.93,19.78-73.62,23.4-104.76,11.61-44.37,18.72-101.52,15.48-150.84-5.18-35.61-33.98-90.85-61.56-145.08-19.77-35.83-46.04-67.16-78.84-93.96-11.88-1.08-17.28,11.52-14.04,19.8Z"/>
  <path id="aductor-2" data-name="aductor" class="cls-1" d="M959.82,1284.75c-32.4,105.07-60.26,207.76-81,306.72-14.35,48.74-25.31,106.23-34.56,168.12-11.14-37.93-19.78-73.62-23.4-104.76-11.61-44.37-18.72-101.52-15.48-150.84,5.18-35.61,33.98-90.85,61.56-145.08,19.77-35.83,46.04-67.16,78.84-93.96,11.88-1.08,17.28,11.52,14.04,19.8Z"/>
  <path id="biceps" class="cls-1" d="M457.64,815.88c-18.06,24.25-30.84,52.81-32.4,83.57-1.9,17.71-2.09,37.33-1.36,60.76,0,8.46,24.84,7.92,39.06-6.84,15.19-20.04,26.94-41.95,33.66-66.6,5.64-16.38,8.81-32.93,9.18-49.68-2.13-25.5-8.4-42.13-22.5-41.94-8.82,0-17.83,10.23-25.64,20.73Z"/>
  <path id="biceps-2" data-name="biceps" class="cls-1" d="M1103.72,815.88c18.06,24.25,30.84,52.81,32.4,83.57,1.9,17.71,2.09,37.33,1.36,60.76,0,8.46-24.84,7.92-39.06-6.84-15.19-20.04-26.94-41.95-33.66-66.6-5.64-16.38-8.81-32.93-9.18-49.68,2.13-25.5,8.4-42.13,22.5-41.94,8.82,0,17.83,10.23,25.64,20.73Z"/>
  <path id="triceps" class="cls-1" d="M1734.82,950.43c-2.05,30.02-2.64,60.72,10.32,67.92l32.16,29.28c22.32-17.76,33.36-36.96,31.68-54.24.48-17.76,9.8-29.7,22.56-42.96,8.64-24.24,14.64-46.32,23.04-65.76,4.14-16.77,3.24-33.41-2.88-49.92l-17.04-88.32c-24.48,14.69-44.02,34.6-59.16,59.16-16.18,34.94-28.26,67.08-33.12,94.32-3.49,15.4-5.84,32.5-7.56,50.52Z"/>
  <path id="triceps-2" data-name="triceps" class="cls-1" d="M2457.5,950.43c2.05,30.02,2.64,60.72-10.32,67.92l-32.16,29.28c-22.32-17.76-33.36-36.96-31.68-54.24-.48-17.76-9.8-29.7-22.56-42.96-8.64-24.24-14.64-46.32-23.04-65.76-4.14-16.77-3.24-33.41,2.88-49.92l17.04-88.32c24.48,14.69,44.02,34.6,59.16,59.16,16.18,34.94,28.26,67.08,33.12,94.32,3.49,15.4,5.84,32.5,7.56,50.52Z"/>
  <path id="gluteos" class="cls-1" d="M1985.02,1263.51c-31.8,15.6-59.52,35.04-83.16,58.32-19.8,23.76-21.64,59.15-5.76,97.92,17.28,39.6,42.04,70.17,70.2,88.2,16.92-2.88,39.72,15.6,70.44,15.6,19.14-1.28,32.96-7.35,37.44-21.84v-36.24h43.68v36.96c7.44,17.04,30.45,25.75,53.76,19.92l40.08-12.96c16.7-.08,30.49-9.93,42.96-24.24,30.58-35.66,49.66-74,52.32-116.16,0-42.72-28.56-65.76-72.48-91.44-32.42-17.45-62.27-31.13-84.96-34.32-11.28,0-19.44,13.44-29.76,24.72h-46.56c-14.16-19.92-18.96-24.72-34.32-24.72-18.47,3.37-36.38,10.46-53.88,20.28Z"/>
  <path id="femoral" class="cls-1" d="M1897.06,1876.59c-3.36,28.56-4.5,54.43-9.6,73.92,14.8-19.68,25.92-40.64,33.36-62.88l45.6,2.88c.1,17.41,3.11,33.31,9.84,47.28,10.92-14.04,14.16-82.08,22.44-139.68,5.65-45.24,14.13-85.11,26.64-117.36,5.16-30-.5-58.86-8.52-86.88-6.9-17.98-14.93-34.04-25.2-46.32-23.6-25.22-46.49-48.43-64.92-59.04-13.32,0-13.07,38.76-15.84,73.8l-.36,160.92c-1.27,58.8-4.21,113.6-13.44,153.36Z"/>
  <path id="femoral-2" data-name="femoral" class="cls-1" d="M2295.38,1876.59c3.36,28.56,4.5,54.43,9.6,73.92-14.8-19.68-25.92-40.64-33.36-62.88l-45.6,2.88c-.1,17.41-3.11,33.31-9.84,47.28-10.92-14.04-14.16-82.08-22.44-139.68-5.65-45.24-14.13-85.11-26.64-117.36-5.16-30,.5-58.86,8.52-86.88,6.9-17.98,14.93-34.04,25.2-46.32,23.6-25.22,46.49-48.43,64.92-59.04,13.32,0,13.07,38.76,15.84,73.8l.36,160.92c1.27,58.8,4.21,113.6,13.44,153.36Z"/>
  <path id="gemelo" class="cls-1" d="M1941.22,1900.83c-43.2,41.76-68.16,105.6-68.16,195.84-.28,50.82,5.22,98.84,17.64,143.52,3.78,10.44,14.2,14.22,19.62,14.22h54.36c22.65-12.74,37.66-33.26,46.62-59.94,7.48-20.62,9.1-44.72,6.84-71.1-3.03-46.05-9.94-87.87-21.24-124.92-6.72-14.43-14.25-30.6-22.32-47.94-8.05-13.06-13.78-30.74-20.16-51.24l-13.2,1.56Z"/>
  <path id="gemelo-2" data-name="gemelo" class="cls-1" d="M2250.72,1900.83c43.2,41.76,68.16,105.6,68.16,195.84.28,50.82-5.22,98.84-17.64,143.52-3.78,10.44-14.2,14.22-19.62,14.22h-54.36c-22.65-12.74-37.66-33.26-46.62-59.94-7.48-20.62-9.1-44.72-6.84-71.1,3.03-46.05,9.94-87.87,21.24-124.92,6.72-14.43,14.25-30.6,22.32-47.94,8.05-13.06,13.78-30.74,20.16-51.24l13.2,1.56Z"/>
  <path id="dorsal" class="cls-1" d="M1861.54,808.11c6.29,18.45,11.52,49.92,30.6,74.16,4.84,43.68,10.4,84.05,19.08,110.16,5.76,20.16,11.02,60.71,18.36,101.16,8.1,16.92,21.78,28.44,33.66,46.08,8.66,9.76,13.09,7.13,14.58-4.14,10.94-34.51,23.63-68.61,36.5-95.09,17.15-42.31,33.36-83.21,44.5-119.29,3.24-16.74-10.98-31.68-20.16-45.54l-40.32-91.62c-11.75-18.79-22.17-57.58-32.4-99.24-14.4-68.16-18.72-58.08-54-41.76l-49.2,24c-9.6,5.28-16.8,18.24-16.8,56.64,1.6,27.59,5.41,51.62,15.6,84.48Z"/>
  <path id="dorsal-2" data-name="dorsal" class="cls-1" d="M2330.12,808.11c-6.29,18.45-11.52,49.92-30.6,74.16-4.84,43.68-10.4,84.05-19.08,110.16-5.76,20.16-11.02,60.71-18.36,101.16-8.1,16.92-21.78,28.44-33.66,46.08-8.66,9.76-13.09,7.13-14.58-4.14-10.94-34.51-23.63-68.61-36.5-95.09-17.15-42.31-33.36-83.21-44.5-119.29-3.24-16.74,10.98-31.68,20.16-45.54l40.32-91.62c11.75-18.79,22.17-57.58,32.4-99.24,14.4-68.16,18.72-58.08,54-41.76l49.2,24c9.6,5.28,16.8,18.24,16.8,56.64-1.6,27.59-5.41,51.62-15.6,84.48Z"/>
  <path id="trapecios" class="cls-1" d="M1936.42,592.59c48.95-16.24,106.56-15.6,139.92,13.92,13.87,15.6,27.3,15.12,40.32,0,33.12-29.04,91.92-30.96,139.44-13.92-12.03,13.94-22.24,38.58-31.68,67.68-11.17,43.21-23.58,84.49-37.68,123.12-9.06,24.98-25.58,54.3-44.4,84.96-12.48,10.8-20.88,58.08-26.16,58.08-13.71-4.23-27.31-4.09-40.8,0-5.28,0-9.36-46.56-30.48-66.72-27.02-46.54-47.43-92.46-58.32-137.52-15.12-55.2-34.28-114.54-50.16-129.6Z"/>
</svg>