{
  "accessors": [
    {
      "bufferView": 1,
      "componentType": 5126,
      "count": 65532,
      "max": [
        38.421573638916016,
        15.1227388381958,
        182.2251434326172
      ],
      "min": [
        -12.274269104003906,
        -17.602720260620117,
        -0.5709078907966614
      ],
      "type": "VEC3"
    },
    {
      "bufferView": 1,
      "byteOffset": 786384,
      "componentType": 5126,
      "count": 65532,
      "max": [
        0.9999852180480957,
        0.9999867677688599,
        0.9998908042907715
      ],
      "min": [
        -0.9999493956565857,
        -0.9999992251396179,
        -0.9999940395355225
      ],
      "type": "VEC3"
    },
    {
      "bufferView": 0,
      "componentType": 5125,
      "count": 283884,
      "type": "SCALAR"
    },
    {
      "bufferView": 1,
      "byteOffset": 1572768,
      "componentType": 5126,
      "count": 65532,
      "max": [
        0.33298492431640625,
        15.125142097473145,
        181.69688415527344
      ],
      "min": [
        -38.260833740234375,
        -17.66629981994629,
        -0.5638545155525208
      ],
      "type": "VEC3"
    },
    {
      "bufferView": 1,
      "byteOffset": 2359152,
      "componentType": 5126,
      "count": 65532,
      "max": [
        0.9999685287475586,
        0.999953031539917,
        0.9947726130485535
      ],
      "min": [
        -0.9999890923500061,
        -0.9999934434890747,
        -0.999977707862854
      ],
      "type": "VEC3"
    },
    {
      "bufferView": 0,
      "byteOffset": 1135536,
      "componentType": 5125,
      "count": 332643,
      "type": "SCALAR"
    },
    {
      "bufferView": 1,
      "byteOffset": 3145536,
      "componentType": 5126,
      "count": 65532,
      "max": [
        -2.497347354888916,
        14.544731140136719,
        170.12391662597656
      ],
      "min": [
        -38.425750732421875,
        -13.746729850769043,
        0.3802693784236908
      ],
      "type": "VEC3"
    },
    {
      "bufferView": 1,
      "byteOffset": 3931920,
      "componentType": 5126,
      "count": 65532,
      "max": [
        0.9999685287475586,
        0.9999938607215881,
        0.9998906254768372
      ],
      "min": [
        -0.9999969601631165,
        -0.9999961256980896,
        -0.9999998807907104
      ],
      "type": "VEC3"
    },
    {
      "bufferView": 0,
      "byteOffset": 2466108,
      "componentType": 5125,
      "count": 315801,
      "type": "SCALAR"
    },
    {
      "bufferView": 1,
      "byteOffset": 4718304,
      "componentType": 5126,
      "count": 65532,
      "max": [
        38.19512176513672,
        15.019181251525879,
        182.1968536376953
      ],
      "min": [
        -34.049034118652344,
        -17.66629981994629,
        -0.510570764541626
      ],
      "type": "VEC3"
    },
    {
      "bufferView": 1,
      "byteOffset": 5504688,
      "componentType": 5126,
      "count": 65532,
      "max": [
        0.9999852180480957,
        0.9999854564666748,
        0.9996604323387146
      ],
      "min": [
        -0.9999951720237732,
        -0.9999874234199524,
        -0.999977707862854
      ],
      "type": "VEC3"
    },
    {
      "bufferView": 0,
      "byteOffset": 3729312,
      "componentType": 5125,
      "count": 251685,
      "type": "SCALAR"
    },
    {
      "bufferView": 1,
      "byteOffset": 6291072,
      "componentType": 5126,
      "count": 65532,
      "max": [
        38.16933059692383,
        15.105973243713379,
        176.4638214111328
      ],
      "min": [
        0.17792552709579468,
        -17.47321891784668,
        -0.569232165813446
      ],
      "type": "VEC3"
    },
    {
      "bufferView": 1,
      "byteOffset": 7077456,
      "componentType": 5126,
      "count": 65532,
      "max": [
        0.9999834895133972,
        0.9999906420707703,
        0.9998908042907715
      ],
      "min": [
        -0.9998559951782227,
        -0.9999908804893494,
        -0.9999940395355225
      ],
      "type": "VEC3"
    },
    {
      "bufferView": 0,
      "byteOffset": 4736052,
      "componentType": 5125,
      "count": 304890,
      "type": "SCALAR"
    },
    {
      "bufferView": 1,
      "byteOffset": 7863840,
      "componentType": 5126,
      "count": 19942,
      "max": [
        38.371273040771484,
        14.154150009155273,
        182.1544952392578
      ],
      "min": [
        0.1454201638698578,
        -17.28158187866211,
        -0.20224809646606445
      ],
      "type": "VEC3"
    },
    {
      "bufferView": 1,
      "byteOffset": 8103144,
      "componentType": 5126,
      "count": 19942,
      "max": [
        0.9999834895133972,
        0.9999854564666748,
        0.9937196969985962
      ],
      "min": [
        -0.9998364448547363,
        -0.9999663233757019,
        -0.9999426603317261
      ],
      "type": "VEC3"
    },
    {
      "bufferView": 0,
      "byteOffset": 5955612,
      "componentType": 5125,
      "count": 75285,
      "type": "SCALAR"
    }
  ],
  "asset": {
    "extras": {
      "author": "DB3D2534 (https://sketchfab.com/DB3D2534)",
      "license": "CC-BY-4.0 (http://creativecommons.org/licenses/by/4.0/)",
      "source": "https://sketchfab.com/3d-models/muscle-body-48c1ae2debb4491d879ec2020096c407",
      "title": "Muscle body"
    },
    "generator": "Sketchfab-12.66.0",
    "version": "2.0"
  },
  "bufferViews": [
    {
      "buffer": 0,
      "byteLength": 6256752,
      "name": "floatBufferViews",
      "target": 34963
    },
    {
      "buffer": 0,
      "byteLength": 8342448,
      "byteOffset": 6256752,
      "byteStride": 12,
      "name": "floatBufferViews",
      "target": 34962
    }
  ],
  "buffers": [
    {
      "byteLength": 14599200,
      "uri": "scene.bin"
    }
  ],
  "extensionsRequired": [
    "KHR_materials_pbrSpecularGlossiness"
  ],
  "extensionsUsed": [
    "KHR_materials_pbrSpecularGlossiness"
  ],
  "materials": [
    {
      "doubleSided": true,
      "extensions": {
        "KHR_materials_pbrSpecularGlossiness": {
          "diffuseFactor": [
            0.3699371518983037,
            0.11893021778745783,
            0.007469696763392427,
            1.0
          ],
          "glossinessFactor": 0.3361195726854301,
          "specularFactor": [
            0.26486976631557635,
            0.2543960576391719,
            0.2415487496673064
          ]
        }
      },
      "name": "material_0"
    }
  ],
  "meshes": [
    {
      "name": "Object_0",
      "primitives": [
        {
          "attributes": {
            "NORMAL": 1,
            "POSITION": 0
          },
          "indices": 2,
          "material": 0,
          "mode": 4
        }
      ]
    },
    {
      "name": "Object_1",
      "primitives": [
        {
          "attributes": {
            "NORMAL": 4,
            "POSITION": 3
          },
          "indices": 5,
          "material": 0,
          "mode": 4
        }
      ]
    },
    {
      "name": "Object_2",
      "primitives": [
        {
          "attributes": {
            "NORMAL": 7,
            "POSITION": 6
          },
          "indices": 8,
          "material": 0,
          "mode": 4
        }
      ]
    },
    {
      "name": "Object_3",
      "primitives": [
        {
          "attributes": {
            "NORMAL": 10,
            "POSITION": 9
          },
          "indices": 11,
          "material": 0,
          "mode": 4
        }
      ]
    },
    {
      "name": "Object_4",
      "primitives": [
        {
          "attributes": {
            "NORMAL": 13,
            "POSITION": 12
          },
          "indices": 14,
          "material": 0,
          "mode": 4
        }
      ]
    },
    {
      "name": "Object_5",
      "primitives": [
        {
          "attributes": {
            "NORMAL": 16,
            "POSITION": 15
          },
          "indices": 17,
          "material": 0,
          "mode": 4
        }
      ]
    }
  ],
  "nodes": [
    {
      "children": [
        1
      ],
      "matrix": [
        1.0,
        0.0,
        0.0,
        0.0,
        0.0,
        2.220446049250313e-16,
        -1.0,
        0.0,
        0.0,
        1.0,
        2.220446049250313e-16,
        0.0,
        0.0,
        0.0,
        0.0,
        1.0
      ],
      "name": "Sketchfab_model"
    },
    {
      "children": [
        2,
        3,
        4,
        5,
        6,
        7
      ],
      "name": "zremesh anatomy muhammet.OBJ.cleaner.materialmerger.gles"
    },
    {
      "mesh": 0,
      "name": "Object_2"
    },
    {
      "mesh": 1,
      "name": "Object_3"
    },
    {
      "mesh": 2,
      "name": "Object_4"
    },
    {
      "mesh": 3,
      "name": "Object_5"
    },
    {
      "mesh": 4,
      "name": "Object_6"
    },
    {
      "mesh": 5,
      "name": "Object_7"
    }
  ],
  "scene": 0,
  "scenes": [
    {
      "name": "Sketchfab_Scene",
      "nodes": [
        0
      ]
    }
  ]
}
